<?xml version="1.0" encoding="UTF-8" standalone="no"?>
<!-- Uploaded to: SVG Repo, www.svgrepo.com, Transformed by: SVG Repo Mixer Tools -->

<svg
   xmlns:dc="http://purl.org/dc/elements/1.1/"
   xmlns:cc="http://creativecommons.org/ns#"
   xmlns:rdf="http://www.w3.org/1999/02/22-rdf-syntax-ns#"
   xmlns:svg="http://www.w3.org/2000/svg"
   xmlns="http://www.w3.org/2000/svg"
   xmlns:sodipodi="http://sodipodi.sourceforge.net/DTD/sodipodi-0.dtd"
   xmlns:inkscape="http://www.inkscape.org/namespaces/inkscape"
   fill="#113892"
   height="800px"
   width="800px"
   version="1.1"
   id="Capa_1"
   viewBox="0 0 297 297"
   xml:space="preserve"
   stroke="#113892"
   transform="matrix(1, 0, 0, -1, 0, 0)rotate(90)"
   sodipodi:docname="up-arrow2.svg"
   inkscape:version="0.92.4 (5da689c313, 2019-01-14)"><metadata
   id="metadata3727"><rdf:RDF><cc:Work
       rdf:about=""><dc:format>image/svg+xml</dc:format><dc:type
         rdf:resource="http://purl.org/dc/dcmitype/StillImage" /><dc:title></dc:title></cc:Work></rdf:RDF></metadata><defs
   id="defs3725" /><sodipodi:namedview
   pagecolor="#ffffff"
   bordercolor="#666666"
   borderopacity="1"
   objecttolerance="10"
   gridtolerance="10"
   guidetolerance="10"
   inkscape:pageopacity="0"
   inkscape:pageshadow="2"
   inkscape:window-width="1600"
   inkscape:window-height="837"
   id="namedview3723"
   showgrid="false"
   inkscape:zoom="0.8375"
   inkscape:cx="400"
   inkscape:cy="400"
   inkscape:window-x="-8"
   inkscape:window-y="-8"
   inkscape:window-maximized="1"
   inkscape:current-layer="Capa_1" />

<g
   id="SVGRepo_bgCarrier"
   stroke-width="0" />

<g
   id="SVGRepo_tracerCarrier"
   stroke-linecap="round"
   stroke-linejoin="round" />

<g
   id="SVGRepo_iconCarrier"> <g
   id="g3719"> <g
   id="g3717"> <polygon
   points="280,147.996 17,0 17,83.283 132,147.996 17,213.15 17,297 "
   id="polygon3715" /> </g> </g> </g>

<path
   style="fill:none;stroke:#000000;stroke-width:0.37125px;stroke-linecap:butt;stroke-linejoin:miter;stroke-opacity:1"
   d="M 280,147.996 93.97612,43.441793 217.20896,145.39701 84.22388,258.43433 Z"
   id="path3735"
   inkscape:connector-curvature="0" /><path
   style="fill:#ff2a2a;stroke-width:1.19402981"
   d="m 242.06944,684.56273 c 2.12326,-1.85278 80.4044,-68.38363 173.95808,-147.84631 93.55369,-79.46269 170.09868,-144.74627 170.09997,-145.07463 0.001,-0.32836 -72.17979,-60.2388 -160.4024,-133.13433 -88.22261,-72.89552 -160.25548,-132.69709 -160.07303,-132.89239 0.51965,-0.55623 485.39306,272.18663 485.38991,273.03338 -0.003,0.75537 -508.8313,288.17622 -511.44593,288.89936 -0.7629,0.211 0.35013,-1.13229 2.4734,-2.98508 z"
   id="path3737"
   inkscape:connector-curvature="0"
   transform="scale(0.37125)" /><path
   style="fill:#ff0000;stroke-width:1.19402981"
   d="m 252.57048,677.17489 c 1.29519,-1.22545 58.23549,-49.6952 126.534,-107.71056 C 595.68759,385.49039 587.16584,392.86542 585.77067,390.60801 584.61208,388.73335 553.68712,362.93035 420.29851,252.54222 284.22342,139.93086 278.00531,134.73101 278.64819,134.08813 c 0.29104,-0.29105 2.59486,0.76665 5.1196,2.35044 2.52473,1.58379 23.12773,13.25763 45.78445,25.94186 140.1427,78.45806 418.10648,235.05984 419.10448,236.11893 0.32835,0.34845 0.057,0.82957 -0.60323,1.06917 -0.66013,0.23958 -15.97356,8.81774 -34.02985,19.06256 -110.59814,62.75149 -295.39148,167.11585 -446.11607,251.94965 -16.05793,9.03804 -19.47103,10.50549 -15.33709,6.59415 z"
   id="path3739"
   inkscape:connector-curvature="0"
   transform="scale(0.37125)" /></svg>